<svg xmlns="http://www.w3.org/2000/svg" width="1200" height="630" viewBox="0 0 1200 630">
  <rect width="1200" height="630" fill="#ede6d7"/>
  <path d="M0 0h1200v630H0z" fill="url(#paper)" opacity=".5"/>
  <defs>
    <filter id="soft"><feGaussianBlur stdDeviation="1.2"/></filter>
    <pattern id="paper" width="16" height="16" patternUnits="userSpaceOnUse">
      <path d="M0 8h16M8 0v16" stroke="#8f846e" stroke-opacity=".025"/>
    </pattern>
  </defs>

  <g transform="translate(600 465)" stroke-linecap="round" fill="none">
    <path d="M-9 112C-42 46-53-21-71-97M9 112C31 39 63-9 83-88M-1 112C2 33-2-31 13-118M-18 112C-4 55-8 5-29-78M18 112C14 60 33 19 47-63"
      stroke="#7e856f" stroke-width="4"/>
    <g stroke="#a7977e" stroke-width="5" opacity=".9">
      <path d="M-71-97c-25 15-35 42-28 71M-71-97c4 27 17 49 36 63M83-88c23 20 29 47 18 72M83-88c-8 29-23 48-42 60"/>
      <path d="M13-118C-6-97-14-71-9-45M13-118c16 25 20 50 12 76M-29-78c-17 18-21 40-13 61M47-63c15 16 18 35 11 53"/>
    </g>
    <g stroke="#c8a79a" stroke-width="8" filter="url(#soft)">
      <path d="M-99-25l-19-18M-94-37l-12-25M101-16l18-20M96-31l10-26M-9-45l-17-25M25-42l16-25"/>
    </g>
    <path d="M-28 58C-8 72 13 73 35 57" stroke="#b78f86" stroke-width="8"/>
  </g>

  <text x="600" y="170" text-anchor="middle" direction="rtl"
    font-family="David Libre, Frank Ruehl Libre, Georgia, serif"
    font-size="34" fill="#68675d" letter-spacing="2">הזמנה לחתונה</text>
  <path d="M440 205h320" stroke="#989586" stroke-width="1"/>
  <text x="600" y="300" text-anchor="middle" direction="rtl"
    font-family="David Libre, Frank Ruehl Libre, Georgia, serif"
    font-size="78" font-weight="400" fill="#55554e">קרין &amp; ניב</text>
  <text x="600" y="355" text-anchor="middle"
    font-family="Georgia, serif" font-size="25" fill="#747368" letter-spacing="10">30 · 10 · 2026</text>
</svg>
